<?xml version="1.0" standalone="no"?><!DOCTYPE svg PUBLIC "-//W3C//DTD SVG 1.1//EN" "http://www.w3.org/Graphics/SVG/1.1/DTD/svg11.dtd"><svg height="2903" node-id="1" sillyvg="true" template-height="2903" template-width="2903" version="1.1" viewBox="0 0 2903 2903" width="2903" xmlns="http://www.w3.org/2000/svg" xmlns:xlink="http://www.w3.org/1999/xlink"><defs node-id="41"></defs><path d="M 613.81 2594.84 L 2288.89 2594.84 C 2473.11 2459.68 2623.42 2281.09 2724.80 2074.23 L 2545.51 2003.92 C 2523.74 1995.38 2511.66 1973.76 2518.68 1955.86 C 2525.70 1937.97 2549.25 1930.31 2571.02 1938.85 L 2754.04 2010.62 C 2765.36 1984.28 2775.91 1957.53 2785.65 1930.40 L 2540.52 1834.28 C 2518.75 1825.74 2506.67 1804.12 2513.69 1786.22 C 2520.71 1768.33 2544.26 1760.67 2566.03 1769.21 L 2807.66 1863.96 C 2847.84 1731.74 2869.21 1591.35 2868.65 1445.93 C 2865.67 663.17 2228.70 31.04 1445.94 34.03 C 1030.96 35.61 658.33 215.38 400.21 500.58 L 754.36 639.45 C 797.90 656.52 824.19 694.30 812.79 723.39 C 801.38 752.48 756.42 762.31 712.87 745.24 L 323.69 592.63 C 299.83 623.91 277.24 656.22 256.00 689.47 L 397.71 745.04 C 441.26 762.11 467.55 799.89 456.14 828.98 C 444.73 858.07 399.77 867.90 356.23 850.83 L 198.09 788.81 C 179.00 824.84 161.43 861.78 145.45 899.56 L 565.41 1064.24 C 608.95 1081.32 635.24 1119.09 623.84 1148.18 C 612.43 1177.27 567.47 1187.10 523.92 1170.03 L 105.43 1005.92 C 58.55 1147.64 33.43 1299.24 34.03 1456.75 C 35.81 1924.24 263.74 2338.01 613.81 2594.84 Z M 2418.37 879.20 C 2421.16 879.20 2423.43 881.46 2423.43 884.26 C 2423.43 887.05 2421.16 889.31 2418.37 889.31 C 2415.58 889.31 2413.31 887.05 2413.31 884.26 C 2413.31 881.47 2415.58 879.20 2418.37 879.20 Z M 2377.93 945.00 L 2382.99 945.00 L 2382.99 934.88 C 2382.99 932.09 2385.25 929.83 2388.05 929.83 C 2390.84 929.83 2393.09 932.09 2393.10 934.89 L 2393.10 945.00 L 2398.16 945.00 C 2400.95 945.00 2403.21 947.26 2403.21 950.05 C 2403.21 952.84 2400.95 955.10 2398.16 955.10 L 2393.10 955.10 L 2393.10 965.21 C 2393.10 968.00 2390.84 970.26 2388.05 970.26 C 2385.25 970.26 2382.99 968.00 2382.99 965.21 L 2382.99 955.10 L 2377.93 955.10 C 2375.14 955.10 2372.88 952.84 2372.88 950.05 C 2372.88 947.26 2375.14 945.00 2377.93 945.00 Z M 2357.71 889.39 C 2360.51 889.39 2362.77 891.66 2362.77 894.45 C 2362.77 897.24 2360.51 899.50 2357.71 899.50 C 2354.93 899.50 2352.66 897.24 2352.66 894.45 C 2352.66 891.66 2354.93 889.39 2357.71 889.39 Z M 2337.50 944.99 C 2337.50 947.78 2335.24 950.05 2332.44 950.05 C 2329.65 950.05 2327.39 947.78 2327.39 944.99 C 2327.39 942.20 2329.65 939.94 2332.44 939.94 C 2335.24 939.94 2337.50 942.20 2337.50 944.99 Z M 2327.39 828.66 C 2330.18 828.66 2332.44 830.92 2332.44 833.71 C 2332.44 836.50 2330.18 838.76 2327.39 838.76 C 2324.60 838.76 2322.33 836.50 2322.33 833.71 C 2322.33 830.92 2324.59 828.66 2327.39 828.66 Z M 2292.01 889.40 L 2297.06 889.40 L 2297.06 879.28 C 2297.06 876.49 2299.33 874.23 2302.12 874.23 C 2304.91 874.23 2307.17 876.49 2307.17 879.28 L 2307.17 889.40 L 2312.22 889.40 C 2315.01 889.40 2317.28 891.66 2317.28 894.45 C 2317.28 897.24 2315.01 899.50 2312.22 899.50 L 2307.17 899.50 L 2307.17 909.61 C 2307.17 912.40 2304.91 914.66 2302.12 914.66 C 2299.33 914.66 2297.06 912.40 2297.06 909.61 L 2297.06 899.50 L 2292.01 899.50 C 2289.22 899.50 2286.95 897.24 2286.95 894.45 C 2286.95 891.66 2289.22 889.40 2292.01 889.40 Z M 2217.12 863.51 C 2217.51 863.12 2217.91 862.74 2218.32 862.36 C 2218.87 861.83 2219.44 861.30 2220.00 860.77 C 2220.42 860.39 2220.84 860.00 2221.26 859.62 C 2221.35 859.55 2221.43 859.47 2221.52 859.39 C 2221.51 859.41 2221.49 859.42 2221.48 859.43 C 2232.49 849.63 2245.29 841.79 2259.33 836.50 C 2254.32 849.81 2251.57 864.23 2251.57 879.28 C 2251.57 946.28 2305.88 1000.59 2372.88 1000.59 C 2387.94 1000.59 2402.36 997.85 2415.66 992.83 C 2410.37 1006.87 2402.54 1019.67 2392.74 1030.67 C 2392.75 1030.66 2392.76 1030.65 2392.78 1030.64 C 2392.72 1030.71 2392.66 1030.77 2392.61 1030.83 C 2392.17 1031.32 2391.72 1031.80 2391.28 1032.29 C 2390.83 1032.77 2390.39 1033.24 2389.94 1033.71 C 2389.49 1034.18 2389.05 1034.65 2388.59 1035.11 C 2387.81 1035.91 2387.02 1036.69 2386.21 1037.47 C 2385.76 1037.90 2385.31 1038.32 2384.85 1038.74 C 2384.35 1039.21 2383.85 1039.67 2383.34 1040.13 C 2382.87 1040.56 2382.40 1040.98 2381.92 1041.40 C 2381.26 1041.97 2380.60 1042.54 2379.93 1043.10 C 2379.31 1043.62 2378.68 1044.14 2378.04 1044.65 C 2377.45 1045.12 2376.86 1045.59 2376.27 1046.05 C 2375.78 1046.42 2375.30 1046.80 2374.81 1047.16 C 2374.17 1047.64 2373.52 1048.11 2372.87 1048.58 C 2372.27 1049.01 2371.67 1049.44 2371.06 1049.86 C 2370.29 1050.39 2369.52 1050.92 2368.74 1051.43 C 2368.26 1051.74 2367.78 1052.05 2367.30 1052.36 C 2366.62 1052.80 2365.93 1053.22 2365.24 1053.64 C 2364.80 1053.91 2364.37 1054.18 2363.93 1054.44 C 2362.90 1055.06 2361.86 1055.65 2360.81 1056.23 C 2360.36 1056.48 2359.90 1056.73 2359.44 1056.97 C 2358.69 1057.37 2357.94 1057.77 2357.19 1058.15 C 2356.74 1058.38 2356.29 1058.62 2355.83 1058.84 C 2354.73 1059.39 2353.61 1059.92 2352.49 1060.43 C 2352.11 1060.61 2351.71 1060.78 2351.32 1060.95 C 2350.47 1061.33 2349.61 1061.70 2348.74 1062.07 C 2348.30 1062.25 2347.85 1062.44 2347.40 1062.62 C 2346.26 1063.08 2345.11 1063.53 2343.95 1063.95 C 2343.67 1064.06 2343.38 1064.15 2343.10 1064.26 C 2342.06 1064.63 2341.02 1064.99 2339.96 1065.33 C 2339.53 1065.47 2339.10 1065.61 2338.67 1065.75 C 2337.62 1066.08 2336.57 1066.39 2335.52 1066.70 C 2335.26 1066.77 2335.00 1066.85 2334.74 1066.92 C 2333.46 1067.28 2332.18 1067.61 2330.88 1067.92 C 2330.48 1068.02 2330.08 1068.11 2329.68 1068.21 C 2328.64 1068.45 2327.59 1068.68 2326.53 1068.89 C 2326.20 1068.96 2325.87 1069.03 2325.54 1069.10 C 2324.21 1069.36 2322.87 1069.60 2321.52 1069.81 C 2321.19 1069.87 2320.85 1069.92 2320.51 1069.97 C 2319.41 1070.13 2318.30 1070.29 2317.19 1070.42 C 2316.83 1070.47 2316.46 1070.52 2316.09 1070.56 C 2314.71 1070.72 2313.32 1070.86 2311.93 1070.97 C 2311.70 1070.99 2311.46 1071.00 2311.23 1071.02 C 2310.02 1071.11 2308.81 1071.18 2307.59 1071.23 C 2307.20 1071.25 2306.82 1071.27 2306.43 1071.28 C 2305.00 1071.33 2303.56 1071.36 2302.12 1071.36 C 2235.11 1071.36 2180.80 1017.05 2180.80 950.05 C 2180.80 948.61 2180.84 947.17 2180.89 945.74 C 2180.90 945.35 2180.92 944.97 2180.93 944.58 C 2180.99 943.36 2181.06 942.14 2181.15 940.93 C 2181.17 940.70 2181.18 940.47 2181.20 940.25 C 2181.31 938.85 2181.45 937.46 2181.61 936.07 C 2181.65 935.71 2181.70 935.34 2181.74 934.98 C 2181.88 933.87 2182.03 932.75 2182.20 931.64 C 2182.25 931.32 2182.30 930.98 2182.35 930.65 C 2182.57 929.30 2182.81 927.95 2183.07 926.61 C 2183.13 926.30 2183.20 925.99 2183.26 925.67 C 2183.49 924.59 2183.72 923.52 2183.97 922.45 C 2184.06 922.07 2184.15 921.69 2184.24 921.31 C 2184.56 920.00 2184.89 918.70 2185.25 917.41 C 2185.31 917.18 2185.38 916.96 2185.45 916.73 C 2185.76 915.63 2186.09 914.54 2186.43 913.46 C 2186.56 913.05 2186.69 912.65 2186.82 912.24 C 2187.18 911.14 2187.56 910.03 2187.96 908.94 C 2188.03 908.75 2188.09 908.56 2188.16 908.37 C 2188.61 907.14 2189.08 905.93 2189.57 904.72 C 2189.73 904.31 2189.91 903.90 2190.08 903.49 C 2190.46 902.56 2190.86 901.64 2191.26 900.73 C 2191.41 900.39 2191.56 900.05 2191.72 899.71 C 2192.24 898.56 2192.79 897.42 2193.35 896.28 C 2193.55 895.88 2193.76 895.48 2193.96 895.08 C 2194.38 894.25 2194.81 893.44 2195.25 892.63 C 2195.47 892.22 2195.68 891.81 2195.90 891.41 C 2196.50 890.32 2197.12 889.25 2197.75 888.18 C 2197.97 887.81 2198.21 887.43 2198.44 887.06 C 2198.90 886.29 2199.38 885.53 2199.86 884.78 C 2200.14 884.35 2200.41 883.91 2200.70 883.49 C 2201.29 882.58 2201.90 881.68 2202.52 880.79 C 2202.82 880.36 2203.12 879.94 2203.43 879.51 C 2203.97 878.76 2204.51 878.02 2205.06 877.28 C 2205.39 876.84 2205.72 876.41 2206.05 875.98 C 2206.59 875.29 2207.13 874.60 2207.68 873.92 C 2208.02 873.50 2208.36 873.07 2208.71 872.65 C 2209.40 871.82 2210.11 870.99 2210.83 870.17 C 2211.19 869.75 2211.57 869.34 2211.94 868.93 C 2212.47 868.33 2213.01 867.75 2213.56 867.17 C 2213.92 866.78 2214.28 866.39 2214.64 866.01 C 2215.46 865.16 2216.28 864.33 2217.12 863.51 Z M 1048.33 341.48 C 1046.94 340.83 1046.35 339.17 1047.00 337.79 C 1047.65 336.42 1049.29 335.82 1050.67 336.46 L 1064.87 343.08 L 1073.65 338.01 L 1057.39 330.42 C 1055.99 329.80 1055.37 328.16 1055.99 326.76 C 1056.62 325.36 1058.26 324.74 1059.66 325.37 C 1059.68 325.38 1059.71 325.39 1059.73 325.40 L 1079.51 334.62 L 1100.48 322.52 L 1079.51 310.42 L 1059.73 319.64 C 1058.39 320.27 1056.79 319.73 1056.11 318.42 L 1056.05 318.30 C 1055.40 316.91 1056.00 315.26 1057.39 314.62 L 1073.65 307.03 L 1064.87 301.96 L 1050.67 308.58 C 1049.33 309.21 1047.73 308.67 1047.04 307.36 L 1046.98 307.24 C 1046.34 305.86 1046.93 304.21 1048.32 303.56 L 1059.01 298.58 L 1041.96 288.74 C 1040.12 287.65 1039.50 285.28 1040.58 283.43 C 1041.65 281.60 1044.00 280.97 1045.85 282.02 L 1062.89 291.86 L 1061.86 280.11 C 1061.73 278.59 1062.86 277.24 1064.38 277.11 C 1065.91 276.97 1067.25 278.10 1067.39 279.63 L 1068.75 295.24 L 1077.53 300.31 L 1075.97 282.43 C 1075.84 280.91 1076.96 279.56 1078.49 279.43 C 1080.02 279.30 1081.36 280.43 1081.49 281.95 L 1083.40 303.69 L 1104.63 315.95 L 1104.63 291.59 L 1086.70 279.07 C 1085.44 278.19 1085.14 276.47 1086.01 275.21 C 1086.01 275.21 1086.01 275.21 1086.02 275.21 L 1086.02 275.20 C 1086.90 273.95 1088.62 273.65 1089.88 274.52 L 1104.63 284.82 L 1104.63 274.68 L 1091.75 265.69 L 1091.75 265.69 C 1090.49 264.81 1090.19 263.08 1091.07 261.83 L 1091.07 261.83 L 1091.08 261.82 C 1091.95 260.57 1093.68 260.27 1094.93 261.14 L 1104.63 267.91 L 1104.63 248.23 C 1104.63 246.09 1106.36 244.35 1108.51 244.35 L 1108.53 244.35 C 1110.67 244.35 1112.41 246.09 1112.41 248.23 L 1112.41 257.16 C 1112.88 257.29 1113.23 257.70 1113.23 258.21 C 1113.23 258.21 1113.23 258.21 1113.23 258.21 C 1113.23 258.73 1112.88 259.13 1112.41 259.26 L 1112.41 267.91 L 1122.10 261.14 C 1123.36 260.27 1125.08 260.57 1125.96 261.82 L 1125.96 261.83 C 1126.84 263.08 1126.54 264.81 1125.29 265.69 C 1125.29 265.69 1125.29 265.69 1125.29 265.69 L 1125.28 265.69 L 1112.41 274.68 L 1112.41 284.82 L 1127.16 274.52 C 1128.41 273.65 1130.14 273.95 1131.01 275.20 L 1131.02 275.21 C 1131.90 276.46 1131.60 278.19 1130.35 279.06 C 1130.34 279.06 1130.34 279.07 1130.34 279.07 L 1112.41 291.59 L 1112.41 315.63 L 1133.09 303.69 L 1134.98 281.95 C 1135.11 280.48 1136.38 279.36 1137.86 279.42 L 1137.99 279.43 C 1139.51 279.57 1140.64 280.91 1140.51 282.44 L 1138.95 300.31 L 1147.73 295.24 L 1149.09 279.63 C 1149.22 278.15 1150.49 277.04 1151.96 277.10 L 1152.10 277.11 C 1153.62 277.25 1154.75 278.59 1154.62 280.11 L 1153.59 291.86 L 1170.63 282.02 C 1172.49 280.95 1174.86 281.58 1175.93 283.44 L 1175.93 283.44 C 1177.01 285.30 1176.37 287.67 1174.51 288.74 L 1157.47 298.58 L 1168.15 303.56 C 1169.54 304.22 1170.13 305.87 1169.48 307.25 C 1168.83 308.63 1167.19 309.22 1165.81 308.59 L 1151.61 301.96 L 1142.83 307.03 L 1159.09 314.62 C 1160.48 315.26 1161.09 316.90 1160.45 318.29 C 1159.81 319.69 1158.17 320.29 1156.77 319.65 C 1156.77 319.65 1156.76 319.64 1156.75 319.64 L 1136.97 310.42 L 1116.00 322.52 L 1136.97 334.62 L 1156.75 325.40 C 1158.09 324.77 1159.69 325.31 1160.37 326.62 L 1160.43 326.74 C 1161.08 328.13 1160.48 329.78 1159.09 330.43 L 1142.83 338.01 L 1151.61 343.08 L 1165.81 336.46 C 1167.15 335.83 1168.75 336.37 1169.44 337.68 L 1169.50 337.80 C 1170.14 339.19 1169.54 340.83 1168.16 341.48 L 1168.15 341.48 L 1157.47 346.46 L 1166.03 351.40 C 1166.21 351.04 1166.57 350.79 1167.00 350.79 C 1167.62 350.79 1168.11 351.29 1168.11 351.90 C 1168.11 351.90 1168.11 351.90 1168.11 351.90 C 1168.11 352.13 1168.03 352.32 1167.92 352.50 L 1174.51 356.30 C 1176.37 357.37 1177.01 359.75 1175.93 361.61 C 1174.86 363.46 1172.49 364.10 1170.63 363.03 L 1170.63 363.03 L 1153.59 353.19 L 1154.62 364.93 C 1154.75 366.45 1153.62 367.80 1152.10 367.93 C 1150.57 368.07 1149.23 366.94 1149.10 365.41 L 1147.73 349.80 L 1138.95 344.73 L 1140.51 362.61 C 1140.64 364.13 1139.52 365.48 1137.99 365.61 C 1136.46 365.74 1135.12 364.62 1134.99 363.09 L 1133.09 341.35 L 1112.41 329.41 L 1112.41 353.45 L 1130.34 365.97 L 1130.34 365.98 C 1131.59 366.85 1131.90 368.58 1131.02 369.83 C 1131.02 369.83 1131.02 369.83 1131.02 369.83 L 1131.01 369.84 C 1130.14 371.09 1128.41 371.39 1127.16 370.52 L 1112.41 360.22 L 1112.41 370.36 L 1125.28 379.35 L 1125.29 379.36 C 1126.54 380.23 1126.84 381.96 1125.96 383.21 L 1125.96 383.21 L 1125.96 383.22 C 1125.08 384.47 1123.36 384.77 1122.10 383.90 L 1112.41 377.13 L 1112.41 396.81 C 1112.41 398.95 1110.67 400.69 1108.53 400.69 L 1108.51 400.69 C 1106.36 400.69 1104.63 398.95 1104.63 396.81 L 1104.63 377.13 L 1094.93 383.90 C 1093.68 384.77 1091.95 384.47 1091.08 383.22 L 1091.07 383.21 C 1090.19 381.96 1090.49 380.23 1091.74 379.36 C 1091.74 379.35 1091.75 379.35 1091.75 379.35 L 1091.75 379.35 L 1104.63 370.36 L 1104.63 360.22 L 1089.88 370.52 C 1088.62 371.39 1086.90 371.09 1086.02 369.84 L 1086.02 369.83 C 1085.14 368.58 1085.44 366.85 1086.69 365.98 C 1086.69 365.97 1086.69 365.97 1086.70 365.97 L 1104.63 353.45 L 1104.63 329.09 L 1083.40 341.35 L 1081.49 363.09 C 1081.37 364.56 1080.10 365.68 1078.62 365.62 L 1078.49 365.61 C 1076.97 365.48 1075.84 364.13 1075.97 362.61 L 1077.54 344.73 L 1068.75 349.80 L 1067.39 365.41 C 1067.26 366.89 1065.99 368.00 1064.51 367.94 L 1064.38 367.93 C 1062.86 367.80 1061.73 366.45 1061.86 364.93 L 1062.89 353.18 L 1045.85 363.02 C 1043.99 364.10 1041.62 363.46 1040.55 361.60 C 1039.47 359.75 1040.11 357.37 1041.97 356.30 L 1059.01 346.46 L 1048.33 341.48 Z" fill="#82d6d8" fill-rule="nonzero" node-id="43" stroke="none" target-height="2563.8" target-width="2835.78" target-x="33.43" target-y="31.04"></path><g node-id="130"><path d="M 2540.12 2619.24 C 2540.12 2603.65 2527.37 2590.89 2511.78 2590.89 L 390.90 2590.89 C 375.31 2590.89 362.56 2603.65 362.56 2619.24 L 362.56 2622.53 C 362.56 2638.12 375.31 2650.88 390.90 2650.88 L 2511.78 2650.88 C 2527.37 2650.88 2540.12 2638.12 2540.12 2622.53 L 2540.12 2619.24 Z" fill="#4e9b9b" fill-rule="nonzero" group-id="1" node-id="47" stroke="none" target-height="59.98999" target-width="2177.56" target-x="362.56" target-y="2590.89"></path></g><g node-id="131"><g node-id="134"><g node-id="136"><path d="M 846.59 2705.04 C 846.59 2697.24 840.21 2690.86 832.42 2690.86 L 478.24 2690.86 C 470.44 2690.86 464.07 2697.24 464.07 2705.04 C 464.07 2712.83 470.44 2719.21 478.24 2719.21 L 832.42 2719.21 C 840.21 2719.21 846.59 2712.83 846.59 2705.04 Z" fill="#4e9b9b" fill-rule="nonzero" group-id="2,5,7" node-id="56" stroke="none" target-height="28.349854" target-width="382.52002" target-x="464.07" target-y="2690.86"></path></g><g node-id="137"><path d="M 2136.77 2705.04 C 2136.77 2697.24 2130.40 2690.86 2122.60 2690.86 L 1884.38 2690.86 C 1876.58 2690.86 1870.20 2697.24 1870.20 2705.04 C 1870.20 2712.83 1876.58 2719.21 1884.38 2719.21 L 2122.60 2719.21 C 2130.40 2719.21 2136.77 2712.83 2136.77 2705.04 Z" fill="#4e9b9b" fill-rule="nonzero" group-id="2,5,8" node-id="61" stroke="none" target-height="28.349854" target-width="266.57007" target-x="1870.2" target-y="2690.86"></path></g><g node-id="138"><path d="M 2438.62 2705.04 C 2438.62 2697.24 2432.24 2690.86 2424.44 2690.86 L 2186.22 2690.86 C 2178.43 2690.86 2172.05 2697.24 2172.05 2705.04 C 2172.05 2712.83 2178.43 2719.21 2186.22 2719.21 L 2424.45 2719.21 C 2432.24 2719.21 2438.62 2712.83 2438.62 2705.04 Z" fill="#4e9b9b" fill-rule="nonzero" group-id="2,5,9" node-id="66" stroke="none" target-height="28.349854" target-width="266.57007" target-x="2172.05" target-y="2690.86"></path></g><path d="M 1829.75 2705.04 C 1829.75 2697.24 1823.37 2690.86 1815.57 2690.86 L 893.28 2690.86 C 885.49 2690.86 879.11 2697.24 879.11 2705.04 C 879.11 2712.83 885.49 2719.21 893.28 2719.21 L 1815.57 2719.21 C 1823.37 2719.21 1829.75 2712.83 1829.75 2705.04 Z" fill="#4e9b9b" fill-rule="nonzero" group-id="2,5,10" node-id="71" stroke="none" target-height="28.349854" target-width="950.64" target-x="879.11" target-y="2690.86"></path></g></g><g node-id="132"><g node-id="135"><g node-id="140"><path d="M 2031.08 1715.62 C 2172.32 1766.28 2273.39 1901.37 2273.39 2060.02 C 2273.39 2262.02 2109.58 2425.83 1907.59 2425.83 L 1244.96 2425.83 C 1137.69 2425.83 1018.75 2424.74 926.47 2362.61 C 852.66 2312.91 803.43 2233.85 786.39 2138.76 C 780.31 2104.74 784.22 2113.53 812.44 2106.04 C 867.20 2091.54 922.73 2078.28 976.76 2061.25 C 982.73 2059.30 989.26 2061.58 992.72 2066.81 C 1026.23 2116.64 1050.75 2172.06 1080.77 2224.06 C 1104.57 2265.27 1147.47 2265.28 1171.27 2224.06 C 1196.24 2180.78 1221.14 2135.87 1247.45 2089.58 C 1267.70 2053.96 1284.41 2064.05 1317.57 2072.94 L 1449.60 2108.31 C 1495.56 2120.61 1525.91 2090.29 1513.58 2044.32 L 1478.21 1912.29 C 1467.81 1873.49 1482.86 1848.64 1512.29 1831.66 L 1630.67 1763.30 C 1671.87 1739.51 1671.89 1696.61 1630.67 1672.81 L 1514.93 1604.99 C 1451.45 1568.31 1469.98 1547.48 1487.38 1482.60 C 1503.16 1423.66 1517.68 1365.25 1529.78 1305.42 C 1530.81 1299.97 1534.99 1295.67 1540.40 1294.48 C 1764.61 1242.11 1989.67 1414.37 1989.67 1650.69 C 1989.71 1707.56 1977.65 1696.46 2031.08 1715.62 Z" fill="#218787" fill-rule="nonzero" group-id="3,6,11" node-id="82" stroke="none" target-height="1183.7201" target-width="1493.0798" target-x="780.31" target-y="1242.11"></path></g><g node-id="141"><path d="M 779.81 2051.57 L 911.83 2016.20 C 919.00 2014.24 923.23 2006.83 921.27 1999.66 C 920.66 1997.42 919.48 1995.38 917.84 1993.72 L 821.20 1897.08 C 815.91 1891.84 807.39 1891.87 802.15 1897.15 C 800.51 1898.80 799.33 1900.85 798.72 1903.09 L 763.35 2035.11 C 758.76 2052.31 763.52 2055.95 779.81 2051.57 Z" fill="#218787" fill-rule="nonzero" group-id="3,6,12" node-id="87" stroke="none" target-height="164.10999" target-width="164.46997" target-x="758.76" target-y="1891.84"></path><path d="M 1111.08 1406.36 C 1272.11 1406.36 1402.70 1536.93 1402.70 1697.97 C 1402.70 1858.99 1272.11 1989.59 1111.08 1989.59 C 950.06 1989.59 819.47 1858.98 819.47 1697.97 C 819.47 1536.95 950.06 1406.36 1111.08 1406.36 Z" fill="#218787" fill-rule="nonzero" group-id="3,6,12" node-id="89" stroke="none" target-height="583.23" target-width="583.23" target-x="819.47" target-y="1406.36"></path><path d="M 1123.44 1211.41 L 1191.78 1329.78 C 1195.47 1336.25 1193.21 1344.48 1186.73 1348.17 C 1184.73 1349.31 1182.46 1349.92 1180.15 1349.93 L 1043.46 1349.93 C 1036.02 1349.90 1030.02 1343.85 1030.05 1336.41 C 1030.06 1334.08 1030.67 1331.80 1031.83 1329.78 L 1100.17 1211.41 C 1109.07 1196.01 1115.01 1196.78 1123.44 1211.41 Z" fill="#218787" fill-rule="nonzero" group-id="3,6,12" node-id="91" stroke="none" target-height="153.92004" target-width="165.44995" target-x="1030.02" target-y="1196.01"></path><path d="M 626.55 1686.34 L 744.92 1618.01 C 751.39 1614.32 759.63 1616.58 763.31 1623.05 C 764.46 1625.06 765.06 1627.33 765.08 1629.63 L 765.08 1766.33 C 765.08 1776.60 753.84 1783.09 744.92 1777.96 L 626.55 1709.60 C 611.15 1700.72 611.94 1694.76 626.55 1686.34 Z" fill="#218787" fill-rule="nonzero" group-id="3,6,12" node-id="93" stroke="none" target-height="168.77002" target-width="153.93" target-x="611.15" target-y="1614.32"></path><path d="M 778.17 1345.20 L 910.21 1380.58 C 917.39 1382.54 921.61 1389.94 919.65 1397.12 C 919.04 1399.36 917.85 1401.41 916.22 1403.06 L 819.57 1499.72 C 814.30 1504.96 805.76 1504.92 800.53 1499.64 C 798.89 1497.99 797.71 1495.95 797.10 1493.71 L 761.72 1361.69 C 757.11 1344.49 761.87 1340.86 778.17 1345.20 Z" fill="#218787" fill-rule="nonzero" group-id="3,6,12" node-id="95" stroke="none" target-height="164.09998" target-width="164.5" target-x="757.11" target-y="1340.86"></path><path d="M 1444.03 1345.20 L 1312.01 1380.58 C 1304.84 1382.53 1300.60 1389.93 1302.55 1397.11 C 1303.16 1399.36 1304.34 1401.40 1305.98 1403.06 L 1402.63 1499.72 C 1407.91 1504.96 1416.44 1504.92 1421.67 1499.64 C 1423.31 1497.99 1424.49 1495.95 1425.10 1493.71 L 1460.48 1361.69 C 1465.08 1344.49 1460.32 1340.86 1444.03 1345.20 Z" fill="#218787" fill-rule="nonzero" group-id="3,6,12" node-id="97" stroke="none" target-height="164.09998" target-width="164.47998" target-x="1300.6" target-y="1340.86"></path><path d="M 1100.40 2185.40 L 1032.06 2067.02 C 1028.36 2060.57 1030.60 2052.34 1037.06 2048.64 C 1039.08 2047.49 1041.36 2046.88 1043.69 2046.87 L 1180.38 2046.87 C 1190.68 2046.87 1197.17 2058.12 1192.01 2067.02 L 1123.68 2185.40 C 1114.78 2200.79 1108.84 2200.02 1100.40 2185.40 Z" fill="#218787" fill-rule="nonzero" group-id="3,6,12" node-id="99" stroke="none" target-height="153.92004" target-width="168.81006" target-x="1028.36" target-y="2046.87"></path><path d="M 1597.29 1710.48 L 1478.92 1778.80 C 1472.45 1782.48 1464.21 1780.22 1460.53 1773.75 C 1459.38 1771.74 1458.78 1769.47 1458.76 1767.17 L 1458.76 1630.49 C 1458.76 1620.20 1470.00 1613.70 1478.92 1618.84 L 1597.29 1687.20 C 1612.69 1696.06 1611.90 1702.02 1597.29 1710.48 Z" fill="#218787" fill-rule="nonzero" group-id="3,6,12" node-id="101" stroke="none" target-height="168.78003" target-width="153.92993" target-x="1458.76" target-y="1613.7"></path><path d="M 1445.67 2051.57 L 1313.65 2016.20 C 1306.47 2014.25 1302.24 2006.85 1304.19 1999.67 C 1304.80 1997.42 1305.99 1995.38 1307.62 1993.72 L 1404.27 1897.08 C 1409.55 1891.84 1418.08 1891.88 1423.32 1897.16 C 1424.95 1898.80 1426.13 1900.85 1426.74 1903.09 L 1462.12 2035.11 C 1466.72 2052.31 1461.98 2055.95 1445.67 2051.57 Z" fill="#218787" fill-rule="nonzero" group-id="3,6,12" node-id="103" stroke="none" target-height="164.10999" target-width="164.47998" target-x="1302.24" target-y="1891.84"></path></g></g></g><path d="M 2031.08 1646.61 C 2172.32 1697.28 2273.39 1832.36 2273.39 1991.01 C 2273.39 2193.01 2109.58 2356.82 1907.59 2356.82 L 1244.96 2356.82 C 1137.69 2356.82 1018.75 2355.73 926.47 2293.60 C 852.66 2243.90 803.43 2164.85 786.39 2069.75 C 780.31 2035.73 784.22 2044.53 812.44 2037.04 C 867.20 2022.53 922.73 2009.28 976.76 1992.24 C 982.73 1990.29 989.26 1992.57 992.72 1997.81 C 1026.23 2047.63 1050.75 2103.05 1080.77 2155.05 C 1104.57 2196.26 1147.47 2196.28 1171.27 2155.05 C 1196.24 2111.78 1221.14 2066.86 1247.45 2020.57 C 1267.70 1984.95 1284.41 1995.04 1317.57 2003.93 L 1449.60 2039.30 C 1495.56 2051.61 1525.91 2021.29 1513.58 1975.32 L 1478.21 1843.28 C 1467.81 1804.48 1482.86 1779.63 1512.29 1762.65 L 1630.67 1694.30 C 1671.87 1670.50 1671.89 1627.60 1630.67 1603.80 L 1514.93 1535.98 C 1451.45 1499.31 1469.98 1478.47 1487.38 1413.60 C 1503.16 1354.66 1517.68 1296.24 1529.78 1236.41 C 1530.81 1230.97 1534.99 1226.66 1540.40 1225.47 C 1764.61 1173.11 1989.67 1345.37 1989.67 1581.68 C 1989.71 1638.55 1977.65 1627.46 2031.08 1646.61 Z" fill="#5fd665" fill-rule="nonzero" node-id="108" stroke="none" target-height="1183.7101" target-width="1493.0798" target-x="780.31" target-y="1173.11"></path><path d="M 779.81 1982.57 L 911.83 1947.20 C 919.00 1945.23 923.23 1937.83 921.27 1930.65 C 920.66 1928.41 919.48 1926.37 917.84 1924.72 L 821.20 1828.07 C 815.91 1822.83 807.39 1822.87 802.15 1828.15 C 800.51 1829.80 799.33 1831.84 798.72 1834.09 L 763.35 1966.10 C 758.76 1983.30 763.52 1986.94 779.81 1982.57 Z" fill="#b78a30" fill-rule="nonzero" group-id="4" node-id="112" stroke="none" target-height="164.10999" target-width="164.46997" target-x="758.76" target-y="1822.83"></path><path d="M 1111.08 1337.35 C 1272.11 1337.35 1402.70 1467.92 1402.70 1628.97 C 1402.70 1789.99 1272.11 1920.58 1111.08 1920.58 C 950.06 1920.58 819.47 1789.97 819.47 1628.97 C 819.47 1467.94 950.06 1337.35 1111.08 1337.35 Z" fill="#e0ab41" fill-rule="nonzero" group-id="4" node-id="114" stroke="none" target-height="583.23" target-width="583.23" target-x="819.47" target-y="1337.35"></path><path d="M 1123.44 1142.40 L 1191.78 1260.77 C 1195.47 1267.24 1193.21 1275.48 1186.73 1279.16 C 1184.73 1280.31 1182.46 1280.91 1180.15 1280.93 L 1043.46 1280.93 C 1036.02 1280.89 1030.02 1274.84 1030.05 1267.40 C 1030.06 1265.08 1030.67 1262.79 1031.83 1260.77 L 1100.17 1142.40 C 1109.07 1127.00 1115.00 1127.77 1123.44 1142.40 Z" fill="#b78a30" fill-rule="nonzero" group-id="4" node-id="116" stroke="none" target-height="153.93005" target-width="165.44995" target-x="1030.02" target-y="1127"></path><path d="M 626.55 1617.34 L 744.92 1549.00 C 751.39 1545.31 759.63 1547.57 763.31 1554.05 C 764.46 1556.05 765.06 1558.32 765.08 1560.63 L 765.08 1697.32 C 765.08 1707.59 753.84 1714.09 744.92 1708.95 L 626.55 1640.60 C 611.15 1631.71 611.94 1625.75 626.55 1617.34 Z" fill="#b78a30" fill-rule="nonzero" group-id="4" node-id="118" stroke="none" target-height="168.7799" target-width="153.93" target-x="611.15" target-y="1545.31"></path><path d="M 778.17 1276.20 L 910.21 1311.57 C 917.38 1313.53 921.61 1320.94 919.65 1328.11 C 919.04 1330.35 917.85 1332.40 916.22 1334.05 L 819.57 1430.71 C 814.29 1435.95 805.76 1435.91 800.52 1430.63 C 798.89 1428.99 797.71 1426.94 797.10 1424.70 L 761.72 1292.68 C 757.11 1275.48 761.87 1271.85 778.17 1276.20 Z" fill="#b78a30" fill-rule="nonzero" group-id="4" node-id="120" stroke="none" target-height="164.09998" target-width="164.5" target-x="757.11" target-y="1271.85"></path><path d="M 1444.03 1276.20 L 1312.01 1311.57 C 1304.84 1313.52 1300.60 1320.93 1302.55 1328.11 C 1303.16 1330.35 1304.34 1332.39 1305.98 1334.05 L 1402.63 1430.71 C 1407.91 1435.95 1416.44 1435.91 1421.67 1430.63 C 1423.31 1428.99 1424.49 1426.94 1425.10 1424.70 L 1460.48 1292.68 C 1465.08 1275.48 1460.32 1271.85 1444.03 1276.20 Z" fill="#b78a30" fill-rule="nonzero" group-id="4" node-id="122" stroke="none" target-height="164.09998" target-width="164.47998" target-x="1300.6" target-y="1271.85"></path><path d="M 1100.40 2116.39 L 1032.06 1998.02 C 1028.36 1991.56 1030.60 1983.33 1037.06 1979.64 C 1039.08 1978.48 1041.36 1977.87 1043.69 1977.86 L 1180.38 1977.86 C 1190.68 1977.86 1197.17 1989.12 1192.01 1998.02 L 1123.68 2116.39 C 1114.78 2131.78 1108.83 2131.01 1100.40 2116.39 Z" fill="#b78a30" fill-rule="nonzero" group-id="4" node-id="124" stroke="none" target-height="153.92004" target-width="168.81006" target-x="1028.36" target-y="1977.86"></path><path d="M 1597.29 1641.47 L 1478.92 1709.79 C 1472.45 1713.47 1464.21 1711.21 1460.53 1704.74 C 1459.38 1702.73 1458.78 1700.47 1458.76 1698.16 L 1458.76 1561.48 C 1458.76 1551.19 1470.00 1544.70 1478.92 1549.84 L 1597.29 1618.19 C 1612.69 1627.06 1611.90 1633.01 1597.29 1641.47 Z" fill="#b78a30" fill-rule="nonzero" group-id="4" node-id="126" stroke="none" target-height="168.77002" target-width="153.92993" target-x="1458.76" target-y="1544.7"></path><path d="M 1445.67 1982.57 L 1313.65 1947.20 C 1306.47 1945.24 1302.24 1937.84 1304.19 1930.67 C 1304.80 1928.42 1305.99 1926.37 1307.62 1924.72 L 1404.27 1828.07 C 1409.55 1822.84 1418.08 1822.87 1423.31 1828.15 C 1424.95 1829.80 1426.13 1831.84 1426.74 1834.09 L 1462.12 1966.10 C 1466.72 1983.30 1461.98 1986.94 1445.67 1982.57 Z" fill="#b78a30" fill-rule="nonzero" group-id="4" node-id="128" stroke="none" target-height="164.09998" target-width="164.47998" target-x="1302.24" target-y="1822.84"></path></svg>