<svg xml:space="preserve" viewBox="0 0 2902.68 2902.68" height="2902.68px" width="2902.68px" y="0px" x="0px" xmlns:xlink="http://www.w3.org/1999/xlink" xmlns="http://www.w3.org/2000/svg" id="图层_1" version="1.1">
<path d="M613.806,2594.839H2288.89c184.219-135.162,334.533-313.748,435.91-520.613l-179.293-70.307
	c-21.771-8.537-33.844-30.162-26.828-48.057c7.018-17.893,30.57-25.549,52.342-17.01l183.018,71.766
	c11.322-26.336,21.869-53.084,31.611-80.213l-245.133-96.125c-21.771-8.537-33.844-30.162-26.826-48.055
	c7.016-17.895,30.57-25.549,52.342-17.012l241.627,94.748c40.178-132.225,61.549-272.609,60.994-418.027
	C2865.669,663.173,2228.696,31.042,1445.937,34.028C1030.964,35.61,658.331,215.376,400.212,500.579L754.358,639.45
	c43.543,17.076,69.836,54.848,58.428,83.939c-11.408,29.09-56.369,38.922-99.912,21.848L323.687,592.626
	c-23.861,31.285-46.447,63.594-67.684,96.846l141.709,55.568c43.545,17.074,69.838,54.848,58.43,83.939
	s-56.367,38.924-99.912,21.848l-158.145-62.014c-19.084,36.023-36.656,72.969-52.639,110.748l419.961,164.68
	c43.543,17.074,69.836,54.847,58.428,83.939c-11.408,29.092-56.367,38.922-99.91,21.848l-418.497-164.105
	c-46.882,141.721-72.001,293.32-71.4,450.823C35.811,1924.245,263.739,2338.013,613.806,2594.839z M2418.372,879.203
	c2.787,0,5.053,2.26,5.053,5.054c0,2.792-2.266,5.055-5.053,5.055c-2.791,0-5.059-2.263-5.059-5.055
	C2413.313,881.466,2415.579,879.203,2418.372,879.203z M2377.935,944.997h5.059v-10.113c0-2.792,2.26-5.054,5.053-5.054
	c2.791,0,5.047,2.262,5.051,5.057v10.11h5.057c2.791,0,5.051,2.263,5.051,5.055c0,2.786-2.256,5.051-5.051,5.051h-5.057v10.106
	c0,2.791-2.26,5.054-5.051,5.054c-2.793,0-5.053-2.263-5.053-5.054v-10.106h-5.059c-2.793,0-5.053-2.263-5.053-5.051
	C2372.882,947.26,2375.142,944.997,2377.935,944.997z M2357.714,889.394c2.793,0,5.057,2.263,5.057,5.055
	c0,2.791-2.264,5.054-5.057,5.054c-2.785,0-5.051-2.263-5.051-5.054C2352.663,891.656,2354.931,889.394,2357.714,889.394z
	 M2337.501,944.994c0,2.789-2.266,5.055-5.061,5.055c-2.791,0-5.051-2.269-5.051-5.055c0-2.791,2.26-5.054,5.051-5.054
	C2335.235,939.94,2337.501,942.203,2337.501,944.994z M2327.39,828.659c2.795,0,5.051,2.262,5.051,5.051
	c0,2.793-2.26,5.055-5.051,5.055s-5.061-2.262-5.061-5.055C2322.329,830.921,2324.595,828.659,2327.39,828.659z M2292.011,889.396
	h5.049v-10.114c0-2.789,2.268-5.055,5.059-5.055c2.787,0,5.053,2.266,5.053,5.055v10.114h5.051c2.791,0,5.061,2.263,5.061,5.054
	c0,2.792-2.27,5.055-5.061,5.055h-5.051v10.107c0,2.789-2.266,5.052-5.053,5.052c-2.793,0-5.059-2.263-5.059-5.052v-10.107h-5.049
	c-2.791,0-5.061-2.263-5.061-5.055C2286.95,891.659,2289.216,889.396,2292.011,889.396z M2217.116,863.511
	c0.396-0.389,0.799-0.77,1.199-1.152c0.559-0.533,1.121-1.063,1.688-1.584c0.418-0.385,0.836-0.771,1.26-1.15
	c0.086-0.076,0.17-0.156,0.256-0.234c-0.012,0.016-0.025,0.031-0.037,0.045c11.008-9.803,23.805-17.641,37.852-22.936
	c-5.016,13.307-7.764,27.727-7.764,42.783c0,66.999,54.311,121.312,121.313,121.312c15.057,0,29.479-2.746,42.781-7.762
	c-5.293,14.041-13.125,26.833-22.92,37.838c0.01-0.009,0.021-0.018,0.031-0.027c-0.055,0.063-0.111,0.122-0.168,0.184
	c-0.438,0.491-0.885,0.976-1.33,1.459c-0.443,0.479-0.891,0.955-1.34,1.428c-0.445,0.468-0.891,0.937-1.344,1.397
	c-0.781,0.796-1.574,1.581-2.379,2.355c-0.449,0.432-0.906,0.854-1.361,1.279c-0.5,0.466-1.002,0.929-1.508,1.386
	c-0.473,0.427-0.947,0.852-1.426,1.271c-0.654,0.572-1.318,1.134-1.984,1.692c-0.627,0.525-1.26,1.042-1.896,1.555
	c-0.586,0.471-1.176,0.938-1.77,1.399c-0.484,0.375-0.973,0.746-1.463,1.113c-0.639,0.479-1.285,0.95-1.934,1.417
	c-0.602,0.433-1.205,0.861-1.813,1.282c-0.766,0.53-1.537,1.054-2.314,1.566c-0.48,0.315-0.963,0.625-1.445,0.934
	c-0.682,0.436-1.367,0.862-2.059,1.284c-0.436,0.267-0.869,0.538-1.311,0.799c-1.029,0.611-2.07,1.206-3.119,1.787
	c-0.455,0.252-0.914,0.496-1.371,0.742c-0.748,0.401-1.498,0.795-2.254,1.181c-0.451,0.229-0.898,0.462-1.354,0.686
	c-1.104,0.547-2.217,1.079-3.34,1.593c-0.387,0.178-0.779,0.346-1.17,0.519c-0.855,0.38-1.715,0.752-2.58,1.112
	c-0.445,0.186-0.893,0.371-1.34,0.552c-1.143,0.461-2.291,0.908-3.451,1.334c-0.283,0.104-0.568,0.202-0.852,0.304
	c-1.039,0.373-2.082,0.731-3.135,1.076c-0.43,0.142-0.863,0.28-1.297,0.417c-1.043,0.33-2.092,0.646-3.148,0.948
	c-0.26,0.074-0.518,0.154-0.779,0.228c-1.277,0.355-2.564,0.686-3.859,1.001c-0.398,0.097-0.799,0.188-1.197,0.281
	c-1.045,0.243-2.096,0.473-3.15,0.688c-0.332,0.067-0.66,0.14-0.992,0.205c-1.332,0.26-2.672,0.498-4.018,0.715
	c-0.338,0.055-0.678,0.102-1.018,0.153c-1.1,0.167-2.203,0.319-3.313,0.457c-0.365,0.046-0.73,0.094-1.098,0.136
	c-1.385,0.158-2.773,0.298-4.17,0.41c-0.23,0.019-0.463,0.03-0.693,0.047c-1.209,0.09-2.422,0.161-3.641,0.215
	c-0.387,0.018-0.771,0.034-1.158,0.048c-1.434,0.05-2.871,0.084-4.316,0.084c-67.002,0-121.313-54.314-121.313-121.311
	c0-1.446,0.033-2.884,0.084-4.317c0.014-0.386,0.031-0.771,0.047-1.155c0.055-1.222,0.125-2.438,0.215-3.65
	c0.018-0.228,0.029-0.456,0.047-0.684c0.113-1.399,0.252-2.792,0.412-4.178c0.041-0.363,0.088-0.724,0.133-1.086
	c0.139-1.117,0.293-2.23,0.461-3.338c0.051-0.33,0.096-0.661,0.15-0.989c0.217-1.355,0.457-2.703,0.719-4.043
	c0.061-0.314,0.131-0.626,0.193-0.939c0.221-1.079,0.455-2.153,0.705-3.223c0.088-0.38,0.176-0.761,0.268-1.14
	c0.318-1.31,0.652-2.612,1.012-3.904c0.064-0.227,0.133-0.45,0.197-0.677c0.314-1.098,0.643-2.188,0.986-3.272
	c0.127-0.406,0.258-0.812,0.391-1.216c0.361-1.106,0.738-2.207,1.133-3.299c0.068-0.191,0.131-0.386,0.201-0.577
	c0.449-1.226,0.924-2.438,1.41-3.646c0.166-0.413,0.338-0.823,0.508-1.233c0.385-0.924,0.781-1.842,1.188-2.754
	c0.15-0.339,0.297-0.681,0.451-1.019c0.527-1.154,1.074-2.298,1.637-3.433c0.199-0.403,0.406-0.802,0.609-1.202
	c0.42-0.823,0.848-1.641,1.285-2.453c0.219-0.406,0.436-0.814,0.658-1.218c0.6-1.084,1.215-2.158,1.846-3.222
	c0.225-0.378,0.457-0.75,0.688-1.126c0.465-0.766,0.938-1.525,1.422-2.28c0.275-0.433,0.553-0.864,0.836-1.294
	c0.596-0.907,1.205-1.808,1.824-2.697c0.299-0.429,0.604-0.852,0.906-1.275c0.539-0.752,1.082-1.496,1.637-2.234
	c0.326-0.436,0.656-0.867,0.988-1.297c0.535-0.693,1.08-1.379,1.629-2.061c0.342-0.424,0.684-0.848,1.031-1.268
	c0.693-0.836,1.398-1.662,2.115-2.48c0.367-0.418,0.74-0.832,1.113-1.248c0.533-0.592,1.072-1.178,1.617-1.76
	c0.361-0.385,0.719-0.775,1.086-1.156C2215.456,865.163,2216.28,864.331,2217.116,863.511z M1048.325,341.481
	c-1.385-0.654-1.977-2.307-1.322-3.691c0.65-1.373,2.285-1.969,3.664-1.334l14.203,6.623l8.783-5.07l-16.264-7.584
	c-1.396-0.627-2.021-2.268-1.395-3.664s2.268-2.021,3.664-1.395c0.025,0.012,0.049,0.023,0.074,0.035l19.781,9.223l20.965-12.104
	l-20.965-12.105l-19.781,9.225c-1.344,0.625-2.939,0.086-3.627-1.225l-0.057-0.115c-0.648-1.389-0.047-3.037,1.34-3.686
	l16.264-7.584l-8.783-5.07l-14.203,6.623c-1.34,0.625-2.938,0.088-3.625-1.223l-0.059-0.117c-0.646-1.387-0.047-3.037,1.342-3.684
	l10.686-4.982l-17.045-9.84c-1.848-1.084-2.469-3.461-1.385-5.311c1.074-1.832,3.42-2.461,5.266-1.41l17.043,9.838l-1.027-11.744
	c-0.133-1.523,0.994-2.869,2.52-3.002c1.525-0.135,2.869,0.994,3.004,2.52l1.365,15.611l8.783,5.07l-1.564-17.877
	c-0.133-1.525,0.994-2.869,2.52-3.002s2.869,0.994,3.002,2.52l1.904,21.742l21.232,12.26v-24.363l-17.932-12.521
	c-1.254-0.875-1.559-2.602-0.684-3.854c0.002-0.002,0.002-0.002,0.004-0.004l0.004-0.01c0.879-1.25,2.604-1.553,3.855-0.678
	l14.752,10.299v-10.143l-12.875-8.988l-0.006-0.004c-1.252-0.879-1.553-2.605-0.676-3.855l0,0l0.006-0.008
	c0.879-1.252,2.604-1.555,3.855-0.68l9.695,6.768v-19.679c0-2.144,1.736-3.881,3.881-3.881h0.021c2.143,0,3.881,1.737,3.881,3.881
	l-0.002,8.927c0.471,0.129,0.822,0.541,0.822,1.053v0.002c-0.002,0.51-0.354,0.92-0.822,1.049v8.648l9.695-6.768
	c1.254-0.875,2.977-0.572,3.855,0.68l0.006,0.008c0.879,1.25,0.578,2.975-0.674,3.854c0,0,0,0,0,0.002l-0.006,0.004l-12.877,8.988
	v10.143l14.752-10.301c1.254-0.875,2.979-0.57,3.855,0.68l0.006,0.01c0.877,1.25,0.576,2.977-0.674,3.854
	c-0.002,0.002-0.004,0.004-0.006,0.004l-17.932,12.521v24.043l20.678-11.939l1.9-21.742c0.129-1.475,1.395-2.588,2.873-2.527
	l0.131,0.008c1.525,0.133,2.652,1.479,2.52,3.002l-1.563,17.877l8.781-5.07l1.367-15.611c0.129-1.475,1.393-2.588,2.871-2.527
	l0.131,0.008c1.525,0.133,2.652,1.479,2.52,3.002l-1.027,11.744l17.043-9.838c1.855-1.072,4.229-0.438,5.301,1.42l0,0
	c1.072,1.855,0.436,4.229-1.42,5.301l-17.043,9.84l10.684,4.982c1.385,0.654,1.977,2.307,1.322,3.691
	c-0.65,1.373-2.283,1.967-3.664,1.332l-14.203-6.623l-8.783,5.07l16.264,7.584c1.391,0.641,2,2.287,1.361,3.678
	c-0.641,1.391-2.285,2-3.678,1.359c-0.008-0.004-0.018-0.008-0.025-0.012l-19.781-9.225l-20.967,12.104l20.967,12.105l19.781-9.223
	c1.34-0.627,2.938-0.088,3.625,1.223l0.057,0.117c0.648,1.387,0.049,3.037-1.34,3.684l-16.262,7.584l8.781,5.07l14.203-6.623
	c1.342-0.625,2.938-0.086,3.625,1.225l0.059,0.117c0.646,1.387,0.047,3.035-1.34,3.684h-0.002l-10.684,4.982l8.555,4.939
	c0.184-0.359,0.547-0.611,0.979-0.611c0.613,0.002,1.109,0.498,1.107,1.109c0,0.002,0,0.002,0,0.004c0,0.221-0.082,0.416-0.195,0.59
	l6.598,3.809c1.855,1.07,2.492,3.443,1.42,5.301c-1.072,1.855-3.445,2.492-5.301,1.42l0,0l-17.043-9.84l1.027,11.744
	c0.133,1.525-0.994,2.869-2.52,3.004c-1.525,0.133-2.869-0.996-3.002-2.521l-1.367-15.611l-8.781-5.07l1.563,17.877
	c0.133,1.525-0.994,2.869-2.52,3.004c-1.525,0.133-2.869-0.996-3.004-2.521l-1.9-21.742l-20.678-11.939v24.043l17.932,12.521
	l0.004,0.002c1.25,0.877,1.555,2.604,0.678,3.855c0,0,0,0.002-0.002,0.002l-0.006,0.008c-0.877,1.252-2.602,1.555-3.855,0.68
	l-14.75-10.301v10.143l12.875,8.99l0.006,0.004c1.25,0.877,1.553,2.604,0.674,3.854l0,0l-0.006,0.008
	c-0.877,1.252-2.602,1.555-3.855,0.682l-9.693-6.77v19.68c0,2.143-1.738,3.881-3.881,3.881h-0.021c-2.145,0-3.881-1.738-3.881-3.881
	v-19.68l-9.695,6.77c-1.252,0.873-2.977,0.57-3.855-0.682l-0.006-0.008c-0.877-1.25-0.576-2.975,0.674-3.854h0.002l0.006-0.004
	l12.875-8.99v-10.143l-14.752,10.301c-1.252,0.875-2.977,0.572-3.855-0.68l-0.006-0.008c-0.877-1.252-0.576-2.977,0.676-3.855
	c0.002-0.002,0.004-0.002,0.006-0.004l17.932-12.521v-24.363l-21.232,12.26l-1.904,21.742c-0.127,1.475-1.393,2.588-2.871,2.529
	l-0.131-0.01c-1.525-0.133-2.652-1.477-2.52-3.002l1.564-17.877l-8.783,5.07l-1.365,15.611c-0.129,1.475-1.395,2.588-2.873,2.529
	l-0.131-0.01c-1.525-0.133-2.652-1.477-2.52-3.002l1.027-11.744l-17.043,9.84c-1.855,1.072-4.229,0.436-5.301-1.42
	c-1.072-1.857-0.436-4.23,1.42-5.301l17.045-9.842L1048.325,341.481z" fill="#CCD683"></path>
<g>
	<path d="M2540.124,2619.239c0-15.592-12.756-28.348-28.346-28.348H390.903c-15.59,0-28.346,12.756-28.346,28.348
		v3.295c0,15.59,12.756,28.346,28.346,28.346h2120.875c15.59,0,28.346-12.756,28.346-28.346V2619.239z" fill="#9AA04D"></path>
</g>
<g>
	<g>
		<g>
			<path d="M846.591,2705.038c0-7.795-6.378-14.172-14.174-14.172H478.241c-7.796,0-14.174,6.377-14.174,14.172
				s6.378,14.174,14.174,14.174h354.176C840.213,2719.212,846.591,2712.833,846.591,2705.038z" fill="#9AA04D"></path>
		</g>
		<g>
			<path d="M2136.774,2705.038c0-7.795-6.378-14.172-14.174-14.172h-238.223c-7.796,0-14.174,6.377-14.174,14.172
				s6.378,14.174,14.174,14.174h238.223C2130.396,2719.212,2136.774,2712.833,2136.774,2705.038z" fill="#9AA04D"></path>
		</g>
		<g>
			<path d="M2438.618,2705.038c0-7.795-6.378-14.172-14.174-14.172h-238.223c-7.796,0-14.174,6.377-14.174,14.172
				s6.378,14.174,14.174,14.174h238.223C2432.24,2719.212,2438.618,2712.833,2438.618,2705.038z" fill="#9AA04D"></path>
		</g>
		<g>
			<path d="M1829.747,2705.038c0-7.795-6.378-14.172-14.174-14.172H893.28c-7.796,0-14.174,6.377-14.174,14.172
				s6.378,14.174,14.174,14.174h922.293C1823.369,2719.212,1829.747,2712.833,1829.747,2705.038z" fill="#9AA04D"></path>
		</g>
	</g>
</g>
<g>
	<g>
		<path d="M1514.06,2181.537c-13.842,7.061-29.17,9.662-43.834,14.139
			c-26.069,7.956-52.549,14.574-78.857,21.752c-32.537,8.633-64.855,18.056-97.354,26.835c-4.738,1.281-9.729,0.975-14.256,2.982
			c-3.295-0.047-6.588-0.096-9.883-0.143c21.418-8.423,44.02-12.732,66.112-18.771c56.376-15.406,112.903-30.253,169.383-45.272
			C1508.202,2182.307,1511.161,2182.033,1514.06,2181.537z" fill="#8C8E43" clip-rule="evenodd" fill-rule="evenodd"></path>
		<path d="M1279.759,2247.245c27.82-9.605,56.559-15.92,84.902-23.645
			c8.797-2.396,17.313-6.243,26.701-6.173c-21.318,8.53-43.75,13.422-65.744,19.692
			C1310.587,2241.405,1295.991,2248.22,1279.759,2247.245z" fill="#8C8E43" clip-rule="evenodd" fill-rule="evenodd"></path>
		
			<rect height="281.448" width="571.217" fill="#8C8E43" clip-rule="evenodd" fill-rule="evenodd" transform="matrix(0.7831 -0.6219 0.6219 0.7831 -974.7903 1379.0342)" y="1946.341" x="1204.106"></rect>
		<g>
			<path d="M1965.29,1880.313c21.438,74.948-22.207,154.278-96.988,176.29l-478.277,140.783
				c-74.781,22.012-153.504-21.298-174.94-96.246l-275.966-964.835c-21.437-74.947,22.209-154.277,96.988-176.29l478.277-140.784
				c74.781-22.012,153.504,21.298,174.941,96.246L1965.29,1880.313z" fill="#8C8E43"></path>
		</g>
		<g>
			<path d="M1901.458,1890.476c4.185,15.018-4.653,30.822-19.641,35.12l-577.17,165.5
				c-14.987,4.297-30.673-4.475-34.857-19.493l-266.556-956.663c-4.185-15.018,4.653-30.822,19.64-35.12l577.17-165.502
				c14.986-4.297,30.672,4.475,34.856,19.493L1901.458,1890.476z" fill="#8C8E43"></path>
		</g>
		<path d="M1628.995,2151.958c-12.709,11.594-22.271,25.881-33.135,39.035
			c-28.273,34.238-56.137,68.814-84.16,103.262c-20.347,25.008-40.705,50.006-61.01,75.047c-3.799,4.687-2.628,10.779-3.566,16.118
			c-1.757,9.985-1.775,20.276-2.516,30.44c-145.496,0-290.991,0-436.488,0c-2.93-3.386-2.346-7.34-1.923-11.32
			c7.166-67.34,13.973-134.719,20.979-202.077c0.479-4.616,1.014-9.312,2.764-13.567c3.273-7.963,1.094-13.399-6.578-16.894
			c-16.337-7.44-23.474-21.475-27.23-37.947c-3.869-16.96-3.814-34.189-2.406-51.315c0.896-10.896,1.262-21.748,1.424-32.65
			c0.772-52.173,3.156-104.303,4.375-156.469c0.963-41.25,2.108-82.531,3.898-123.746c2.137-49.148,2.029-98.365,5.303-147.473
			c1.447-21.732,1.23-43.586,1.684-65.344c0.705-33.679,3.457-67.32,2.549-101.029c-0.373-13.909,2.903-27.617,2.09-41.543
			c0.426-3.073,0.346-6.292,2.459-8.898c12.422-4.813,24.947-2.658,37.467-0.519c22.195,3.333,41.973,11.5,57.287,28.646
			c4.643,5.198,10.236,9.365,15.57,13.801c25.393,21.113,33.742,50.855,39.354,81.217c5.747,31.104,1.961,62.546-0.792,93.822
			c-3.248,36.893-8.698,73.482-14.806,109.982c-0.913,5.462-0.775,11.275-4.148,16.135c-8.496,14.352-2.775,28.883,0.248,42.965
			c17.514,81.598,36.456,162.87,56.023,244c13.639,56.547,26.957,113.17,40.514,169.737c2.693,11.243,6.643,22.049,11.941,32.391
			c2.975,5.806,6.818,9.623,13.709,9.337c3.069-1.285,6.426-1.044,9.592-1.801c21.914-1.445,42.052-10.203,63-15.584
			c16.22-4.168,32.417-8.588,48.334-13.896c41.18-11.093,82.347-22.229,123.26-34.282c38.316-10.479,76.632-20.958,114.947-31.438
			c0.752,0.418,1,0.832,0.748,1.244C1629.503,2151.753,1629.251,2151.958,1628.995,2151.958z" fill="#8C8E43" clip-rule="evenodd" fill-rule="evenodd"></path>
		<path d="M1813.632,1360.317c-9.17-26.322-15.15-53.538-22.451-80.382
			c-10.168-37.382-20.194-74.802-30.242-112.216c-0.506-1.887-0.627-3.877-0.927-5.82c-1.202-2.217,0.567-2.816,1.97-3.615
			c12.465-14.426,25.129-28.688,37.343-43.323c13.55-16.232,28.019-31.563,42.995-46.47c3.955-3.936,8.975-5.063,13.477-5.213
			c17.418-0.584,34.975-2.621,52.243,1.618c29.022,7.124,51.378,36.479,52.827,66.498c0.834,17.292-4.867,31.491-14.102,45.222
			c-37.504,55.752-76.781,110.241-116.639,164.322C1825.083,1347.785,1821.197,1355.618,1813.632,1360.317z" fill="#8C8E43" clip-rule="evenodd" fill-rule="evenodd"></path>
		<path d="M1842.644,1594.526c-0.436-0.577-0.87-1.154-1.303-1.732
			c-1.633-4.538,2.191-6.524,4.482-8.982c18.657-20.018,36.557-40.687,53.781-61.943c10.129-12.498,10.47-15.826,0.762-28.572
			c-18.871-24.775-40.247-47.12-66.17-64.684c-13.877-9.405-19.795-8.561-32.109,3.222c-15.068,14.417-27.729,30.875-40.419,47.323
			c-2.477,3.209-4.07,7.72-9.208,7.969c2.049-17.592,13.766-29.842,23.843-42.965c6.343-8.259,19.674-23.352,19.674-23.352
			s14.612-18.6,22.401-27.049c2.855-3.095,3.524-4.23,3.524-4.23s1.466-1.598,5.526-6.014c14.732-16.016,28.35-33.033,43.961-48.266
			c20.115-19.625,60.238-18.607,81.205-0.331c31.941,27.846,35.611,62.864,29.367,100.958c-1.548,9.441-9.057,16.614-14.984,24.068
			c-29.341,36.896-60.372,72.328-92.639,106.686c-1.612,1.717-3.145,3.407-3.219,5.927c-0.098,1.518-0.742,2.799-1.677,3.961
			c-5.031,5.446-10.256,10.712-15.688,15.762C1850.587,1595.226,1847.147,1597.765,1842.644,1594.526z" fill="#8C8E43" clip-rule="evenodd" fill-rule="evenodd"></path>
		<path d="M1752.46,1487.126c15.469-19.633,30.084-39.963,48.241-57.359
			c13.093-12.543,19.383-13.396,34.642-3.225c27.211,18.137,49.16,41.752,68.699,67.62c9.15,12.115,7.855,16.687-2.493,29.36
			c-19.362,23.715-39.962,46.336-60.21,69.271c-14.906-2.967-27.445-10.727-39.211-19.813c-24.264-18.74-42.57-41.87-52.145-71.431
			C1748.193,1496.021,1748.442,1491.391,1752.46,1487.126z" fill="#8C8E43" clip-rule="evenodd" fill-rule="evenodd"></path>
	</g>
</g>
<g>
	<path d="M1506.319,2088.561c-13.842,7.061-29.17,9.662-43.834,14.139
		c-26.069,7.956-52.549,14.574-78.857,21.752c-32.537,8.633-64.855,18.056-97.354,26.835c-4.738,1.281-9.729,0.975-14.256,2.982
		c-3.295-0.047-6.588-0.096-9.883-0.143c21.418-8.423,44.02-12.732,66.112-18.771c56.376-15.406,112.903-30.253,169.383-45.272
		C1500.462,2089.331,1503.421,2089.057,1506.319,2088.561z" fill="#DAD7D5" clip-rule="evenodd" fill-rule="evenodd"></path>
	<path d="M1272.019,2154.269c27.82-9.605,56.559-15.92,84.902-23.645
		c8.797-2.396,17.313-6.243,26.701-6.173c-21.318,8.53-43.75,13.422-65.744,19.692
		C1302.847,2148.429,1288.251,2155.244,1272.019,2154.269z" fill="#FCF9F7" clip-rule="evenodd" fill-rule="evenodd"></path>
	
		<rect height="281.448" width="571.217" fill="#D6B580" clip-rule="evenodd" fill-rule="evenodd" transform="matrix(0.7831 -0.6219 0.6219 0.7831 -918.6504 1354.0566)" y="1853.365" x="1196.366"></rect>
	<g>
		<path d="M1957.55,1787.337c21.438,74.948-22.207,154.278-96.988,176.29l-478.277,140.783
			c-74.781,22.012-153.504-21.298-174.94-96.246L931.378,1043.33c-21.437-74.948,22.209-154.278,96.988-176.29l478.277-140.784
			c74.781-22.012,153.504,21.299,174.941,96.246L1957.55,1787.337z" fill="#FFFFFF"></path>
	</g>
	<g>
		<path d="M1893.718,1797.5c4.185,15.019-4.653,30.822-19.641,35.12l-577.17,165.5
			c-14.987,4.297-30.673-4.475-34.857-19.493l-266.556-956.663c-4.185-15.019,4.653-30.822,19.64-35.12l577.17-165.502
			c14.986-4.297,30.672,4.475,34.856,19.493L1893.718,1797.5z" fill="#6E8C4C"></path>
	</g>
	<path d="M1621.255,2058.982c-12.709,11.594-22.271,25.881-33.135,39.035
		c-28.273,34.238-56.137,68.814-84.16,103.262c-20.347,25.008-40.705,50.006-61.01,75.047c-3.799,4.687-2.628,10.779-3.566,16.118
		c-1.757,9.985-1.775,20.276-2.516,30.44c-145.496,0-290.991,0-436.488,0c-2.93-3.386-2.346-7.34-1.923-11.32
		c7.166-67.34,13.973-134.719,20.979-202.077c0.479-4.616,1.014-9.312,2.764-13.567c3.273-7.963,1.094-13.399-6.578-16.894
		c-16.337-7.44-23.474-21.475-27.23-37.947c-3.869-16.96-3.814-34.189-2.406-51.315c0.896-10.896,1.262-21.748,1.424-32.65
		c0.772-52.173,3.156-104.303,4.375-156.469c0.963-41.25,2.108-82.531,3.898-123.746c2.137-49.148,2.029-98.365,5.303-147.473
		c1.447-21.732,1.23-43.586,1.684-65.344c0.705-33.679,3.457-67.32,2.549-101.029c-0.373-13.909,2.903-27.617,2.09-41.543
		c0.426-3.073,0.346-6.292,2.459-8.898c12.422-4.813,24.947-2.658,37.467-0.519c22.195,3.333,41.973,11.5,57.287,28.646
		c4.643,5.198,10.236,9.365,15.57,13.801c25.393,21.113,33.742,50.855,39.354,81.217c5.747,31.104,1.961,62.546-0.792,93.822
		c-3.248,36.893-8.698,73.482-14.806,109.982c-0.913,5.462-0.775,11.275-4.148,16.135c-8.496,14.352-2.775,28.883,0.248,42.965
		c17.514,81.598,36.456,162.87,56.023,244c13.639,56.547,26.957,113.17,40.514,169.737c2.693,11.243,6.643,22.049,11.941,32.391
		c2.975,5.806,6.818,9.623,13.709,9.337c3.069-1.285,6.426-1.044,9.592-1.801c21.914-1.445,42.052-10.203,63-15.584
		c16.22-4.168,32.417-8.588,48.334-13.896c41.18-11.093,82.347-22.229,123.26-34.282c38.316-10.479,76.632-20.958,114.947-31.438
		c0.752,0.418,1,0.832,0.748,1.244C1621.763,2058.777,1621.511,2058.982,1621.255,2058.982z" fill="#D6B580" clip-rule="evenodd" fill-rule="evenodd"></path>
	<path d="M1805.892,1267.341c-9.17-26.322-15.15-53.538-22.451-80.382
		c-10.168-37.382-20.194-74.802-30.242-112.216c-0.506-1.887-0.627-3.877-0.927-5.82c-1.202-2.217,0.567-2.816,1.97-3.615
		c12.465-14.426,25.129-28.688,37.343-43.323c13.55-16.232,28.019-31.563,42.995-46.47c3.955-3.936,8.975-5.063,13.477-5.213
		c17.418-0.584,34.975-2.621,52.243,1.618c29.022,7.124,51.378,36.479,52.827,66.498c0.834,17.292-4.867,31.491-14.102,45.222
		c-37.504,55.752-76.781,110.241-116.639,164.322C1817.343,1254.809,1813.457,1262.642,1805.892,1267.341z" fill="#D6B580" clip-rule="evenodd" fill-rule="evenodd"></path>
	<path d="M1834.903,1501.55c-0.436-0.577-0.87-1.154-1.303-1.732
		c-1.633-4.538,2.191-6.524,4.482-8.982c18.657-20.018,36.557-40.687,53.781-61.943c10.129-12.498,10.47-15.826,0.762-28.572
		c-18.871-24.775-40.247-47.12-66.17-64.684c-13.877-9.405-19.795-8.561-32.109,3.222c-15.068,14.417-27.729,30.875-40.419,47.323
		c-2.477,3.209-4.07,7.72-9.208,7.969c2.049-17.592,13.766-29.842,23.843-42.965c6.343-8.259,19.674-23.352,19.674-23.352
		s14.612-18.6,22.401-27.049c2.855-3.095,3.524-4.23,3.524-4.23s1.466-1.598,5.526-6.014c14.732-16.016,28.35-33.033,43.961-48.266
		c20.115-19.625,60.238-18.607,81.205-0.331c31.941,27.846,35.611,62.864,29.367,100.958c-1.548,9.441-9.057,16.614-14.984,24.068
		c-29.341,36.896-60.372,72.328-92.639,106.686c-1.612,1.717-3.145,3.407-3.219,5.927c-0.098,1.518-0.742,2.799-1.677,3.961
		c-5.031,5.446-10.256,10.712-15.688,15.762C1842.847,1502.25,1839.407,1504.789,1834.903,1501.55z" fill="#D6B580" clip-rule="evenodd" fill-rule="evenodd"></path>
	<path d="M1744.72,1394.15c15.469-19.633,30.084-39.963,48.241-57.359
		c13.093-12.543,19.383-13.396,34.642-3.225c27.211,18.137,49.16,41.752,68.699,67.62c9.15,12.115,7.855,16.687-2.493,29.36
		c-19.362,23.715-39.962,46.336-60.21,69.271c-14.906-2.967-27.445-10.727-39.211-19.813c-24.264-18.74-42.57-41.87-52.145-71.431
		C1740.453,1403.044,1740.702,1398.415,1744.72,1394.15z" fill="#E2D2C9" clip-rule="evenodd" fill-rule="evenodd"></path>
</g>
</svg>
