<svg xml:space="preserve" viewBox="0 0 2902.68 2902.68" height="2902.68px" width="2902.68px" y="0px" x="0px" xmlns:xlink="http://www.w3.org/1999/xlink" xmlns="http://www.w3.org/2000/svg" id="图层_1" version="1.1">
<path d="M613.805,2594.839h1675.084c184.219-135.162,334.532-313.749,435.91-520.613l-179.294-70.307
	c-21.771-8.537-33.844-30.162-26.827-48.056s30.57-25.549,52.342-17.012l183.017,71.767c11.322-26.337,21.869-53.084,31.611-80.214
	l-245.132-96.124c-21.771-8.537-33.844-30.162-26.827-48.056s30.57-25.549,52.343-17.011l241.626,94.748
	c40.179-132.225,61.55-272.609,60.995-418.027C2865.667,663.173,2228.695,31.042,1445.934,34.028
	C1030.963,35.61,658.33,215.376,400.211,500.58l354.146,138.87c43.543,17.076,69.836,54.848,58.428,83.938
	c-11.408,29.092-56.369,38.923-99.912,21.849L323.686,592.626c-23.86,31.285-46.446,63.594-67.684,96.846l141.71,55.568
	c43.543,17.074,69.836,54.848,58.429,83.939s-56.368,38.923-99.911,21.849l-158.145-62.015
	c-19.084,36.023-36.656,72.97-52.639,110.748l419.96,164.68c43.543,17.074,69.836,54.847,58.429,83.938
	s-56.368,38.924-99.911,21.849l-418.496-164.105c-46.881,141.722-72.001,293.32-71.4,450.823
	C35.811,1924.245,263.739,2338.013,613.805,2594.839z M2418.372,879.203c2.786,0,5.052,2.26,5.052,5.054
	c0,2.792-2.266,5.055-5.052,5.055c-2.792,0-5.06-2.263-5.06-5.055C2413.312,881.466,2415.578,879.203,2418.372,879.203z
	 M2377.933,944.997h5.06v-10.113c0-2.791,2.26-5.055,5.052-5.055c2.791,0,5.048,2.264,5.051,5.057v10.111h5.057
	c2.792,0,5.052,2.264,5.052,5.055c0,2.785-2.257,5.051-5.052,5.051h-5.057v10.105c0,2.793-2.26,5.055-5.051,5.055
	c-2.792,0-5.052-2.262-5.052-5.055v-10.105h-5.06c-2.792,0-5.052-2.262-5.052-5.051
	C2372.881,947.261,2375.141,944.997,2377.933,944.997z M2357.713,889.394c2.792,0,5.057,2.262,5.057,5.055
	c0,2.791-2.265,5.053-5.057,5.053c-2.786,0-5.051-2.262-5.051-5.053C2352.663,891.655,2354.93,889.394,2357.713,889.394z
	 M2337.5,944.995c0,2.789-2.266,5.053-5.06,5.053c-2.791,0-5.052-2.268-5.052-5.053c0-2.793,2.261-5.055,5.052-5.055
	C2335.234,939.94,2337.5,942.202,2337.5,944.995z M2327.388,828.659c2.795,0,5.052,2.263,5.052,5.052
	c0,2.791-2.26,5.054-5.052,5.054c-2.791,0-5.06-2.263-5.06-5.054C2322.329,830.922,2324.594,828.659,2327.388,828.659z
	 M2292.009,889.396h5.049v-10.114c0-2.789,2.269-5.054,5.06-5.054c2.786,0,5.052,2.265,5.052,5.054v10.114h5.051
	c2.792,0,5.061,2.263,5.061,5.054s-2.269,5.055-5.061,5.055h-5.051v10.107c0,2.789-2.266,5.053-5.052,5.053
	c-2.794,0-5.06-2.264-5.06-5.053v-10.107h-5.049c-2.791,0-5.06-2.264-5.06-5.055S2289.215,889.396,2292.009,889.396z
	 M2217.116,863.51c0.396-0.389,0.798-0.77,1.199-1.152c0.558-0.533,1.12-1.062,1.688-1.584c0.418-0.385,0.836-0.77,1.259-1.149
	c0.087-0.077,0.171-0.156,0.257-0.233c-0.013,0.015-0.025,0.029-0.038,0.044c11.008-9.803,23.805-17.641,37.852-22.936
	c-5.016,13.307-7.764,27.728-7.764,42.783c0,67,54.312,121.311,121.313,121.311c15.057,0,29.478-2.744,42.78-7.76
	c-5.292,14.041-13.124,26.832-22.92,37.838c0.011-0.01,0.021-0.02,0.032-0.027c-0.056,0.061-0.112,0.121-0.168,0.184
	c-0.438,0.49-0.885,0.975-1.331,1.459c-0.442,0.479-0.89,0.955-1.34,1.428c-0.445,0.467-0.89,0.936-1.343,1.396
	c-0.782,0.796-1.575,1.581-2.379,2.355c-0.449,0.432-0.907,0.854-1.362,1.279c-0.499,0.466-1.001,0.929-1.508,1.386
	c-0.473,0.427-0.946,0.852-1.426,1.271c-0.654,0.572-1.317,1.134-1.984,1.692c-0.626,0.525-1.259,1.042-1.896,1.555
	c-0.586,0.471-1.175,0.938-1.77,1.399c-0.484,0.375-0.972,0.746-1.462,1.113c-0.639,0.479-1.285,0.95-1.935,1.417
	c-0.601,0.433-1.204,0.861-1.813,1.282c-0.766,0.53-1.536,1.054-2.314,1.566c-0.479,0.315-0.962,0.625-1.445,0.934
	c-0.681,0.436-1.367,0.862-2.058,1.284c-0.437,0.267-0.87,0.538-1.311,0.799c-1.03,0.611-2.071,1.206-3.12,1.787
	c-0.454,0.252-0.913,0.496-1.371,0.742c-0.747,0.401-1.498,0.795-2.254,1.181c-0.45,0.229-0.898,0.462-1.353,0.686
	c-1.104,0.547-2.217,1.079-3.34,1.593c-0.388,0.178-0.78,0.346-1.17,0.519c-0.855,0.38-1.716,0.752-2.581,1.112
	c-0.445,0.186-0.892,0.371-1.34,0.552c-1.143,0.461-2.291,0.908-3.45,1.334c-0.283,0.104-0.568,0.202-0.853,0.304
	c-1.038,0.373-2.082,0.731-3.134,1.076c-0.431,0.142-0.863,0.28-1.297,0.417c-1.044,0.33-2.093,0.646-3.148,0.948
	c-0.261,0.074-0.519,0.154-0.779,0.228c-1.277,0.355-2.565,0.686-3.859,1.001c-0.398,0.097-0.799,0.188-1.198,0.281
	c-1.045,0.243-2.096,0.473-3.15,0.688c-0.331,0.067-0.66,0.14-0.992,0.205c-1.331,0.26-2.671,0.498-4.017,0.715
	c-0.339,0.055-0.679,0.102-1.018,0.153c-1.1,0.167-2.203,0.319-3.313,0.457c-0.366,0.046-0.731,0.094-1.099,0.136
	c-1.384,0.158-2.773,0.298-4.17,0.41c-0.23,0.019-0.462,0.03-0.692,0.047c-1.209,0.09-2.423,0.161-3.642,0.215
	c-0.386,0.018-0.771,0.034-1.158,0.048c-1.433,0.05-2.87,0.084-4.315,0.084c-67.002,0-121.313-54.314-121.313-121.311
	c0-1.445,0.034-2.883,0.085-4.316c0.014-0.387,0.03-0.771,0.047-1.156c0.055-1.223,0.125-2.439,0.215-3.65
	c0.018-0.227,0.029-0.457,0.047-0.684c0.112-1.4,0.252-2.791,0.411-4.178c0.042-0.363,0.089-0.725,0.134-1.086
	c0.139-1.117,0.292-2.23,0.461-3.338c0.05-0.33,0.096-0.66,0.149-0.99c0.218-1.354,0.457-2.701,0.719-4.041
	c0.062-0.314,0.131-0.627,0.194-0.939c0.221-1.08,0.455-2.154,0.704-3.223c0.089-0.381,0.176-0.762,0.268-1.141
	c0.318-1.309,0.652-2.613,1.013-3.904c0.063-0.227,0.133-0.451,0.197-0.676c0.313-1.098,0.643-2.189,0.985-3.273
	c0.128-0.406,0.258-0.811,0.391-1.215c0.362-1.107,0.739-2.207,1.133-3.301c0.068-0.191,0.132-0.385,0.202-0.576
	c0.448-1.225,0.923-2.438,1.409-3.645c0.167-0.414,0.338-0.824,0.509-1.234c0.384-0.924,0.78-1.842,1.187-2.754
	c0.151-0.34,0.297-0.682,0.451-1.018c0.527-1.154,1.074-2.299,1.637-3.434c0.199-0.402,0.406-0.803,0.61-1.203
	c0.419-0.822,0.848-1.641,1.284-2.451c0.22-0.406,0.436-0.814,0.659-1.219c0.6-1.084,1.214-2.158,1.845-3.222
	c0.225-0.378,0.458-0.75,0.688-1.126c0.466-0.766,0.938-1.525,1.422-2.28c0.276-0.433,0.554-0.864,0.836-1.294
	c0.597-0.907,1.205-1.808,1.825-2.697c0.299-0.429,0.603-0.852,0.906-1.275c0.538-0.751,1.082-1.497,1.637-2.234
	c0.326-0.436,0.655-0.867,0.987-1.297c0.536-0.693,1.08-1.379,1.63-2.061c0.342-0.424,0.683-0.849,1.03-1.268
	c0.693-0.837,1.399-1.662,2.115-2.479c0.367-0.42,0.74-0.834,1.113-1.248c0.533-0.593,1.072-1.179,1.617-1.76
	c0.361-0.387,0.72-0.775,1.086-1.157C2215.455,865.164,2216.28,864.331,2217.116,863.51z M1048.323,341.481
	c-1.384-0.654-1.976-2.307-1.321-3.691c0.649-1.374,2.284-1.968,3.664-1.333l14.203,6.622l8.782-5.07l-16.264-7.585
	c-1.396-0.627-2.021-2.267-1.394-3.663c0.627-1.397,2.267-2.021,3.664-1.395c0.024,0.012,0.049,0.022,0.073,0.034l19.781,9.224
	l20.966-12.104l-20.966-12.104l-19.781,9.225c-1.343,0.626-2.938,0.087-3.626-1.224l-0.058-0.117
	c-0.647-1.388-0.047-3.036,1.34-3.684l16.264-7.584l-8.782-5.07l-14.203,6.622c-1.341,0.625-2.938,0.088-3.626-1.223l-0.058-0.117
	c-0.647-1.388-0.047-3.037,1.341-3.684l10.686-4.982l-17.044-9.84c-1.849-1.084-2.469-3.462-1.385-5.311
	c1.074-1.832,3.42-2.46,5.266-1.411l17.043,9.839l-1.028-11.743c-0.133-1.525,0.995-2.87,2.521-3.003
	c1.525-0.134,2.869,0.994,3.003,2.52l1.366,15.611l8.782,5.071l-1.564-17.878c-0.133-1.524,0.995-2.869,2.521-3.002
	c1.525-0.134,2.869,0.995,3.002,2.52l1.903,21.743l21.232,12.258v-24.362l-17.932-12.521c-1.253-0.875-1.559-2.601-0.683-3.854
	c0.001-0.001,0.002-0.003,0.003-0.005l0.005-0.008c0.879-1.25,2.603-1.555,3.855-0.68l14.751,10.3V274.68l-12.875-8.99l-0.006-0.003
	c-1.251-0.879-1.553-2.604-0.675-3.855l0,0l0.006-0.008c0.879-1.251,2.603-1.555,3.854-0.681l9.695,6.77v-19.68
	c0-2.144,1.737-3.881,3.881-3.881h0.021c2.143,0,3.881,1.737,3.881,3.881l0,8.927c0.47,0.13,0.822,0.542,0.821,1.053v0.002
	c-0.001,0.51-0.353,0.92-0.821,1.05l0,8.648l9.695-6.77c1.253-0.874,2.977-0.57,3.854,0.681l0.006,0.008
	c0.879,1.25,0.578,2.976-0.673,3.854c-0.001,0-0.001,0-0.001,0.001l-0.006,0.003l-12.876,8.99v10.142l14.752-10.301
	c1.253-0.874,2.978-0.57,3.855,0.681l0.006,0.008c0.877,1.251,0.575,2.977-0.675,3.854c-0.002,0.002-0.004,0.003-0.006,0.004
	l-17.932,12.521v24.043l20.678-11.938l1.901-21.743c0.129-1.475,1.395-2.588,2.874-2.527l0.13,0.008
	c1.525,0.134,2.653,1.478,2.52,3.002l-1.563,17.876l8.782-5.07l1.367-15.61c0.129-1.476,1.394-2.588,2.873-2.528l0.13,0.009
	c1.525,0.133,2.653,1.478,2.52,3.003l-1.027,11.743l17.042-9.839c1.856-1.072,4.229-0.437,5.301,1.42c0.001,0,0.001,0,0.001,0.001
	c1.071,1.855,0.436,4.229-1.421,5.301l-17.042,9.839l10.684,4.983c1.384,0.653,1.976,2.307,1.321,3.69
	c-0.649,1.373-2.283,1.968-3.664,1.333l-14.203-6.623l-8.782,5.071l16.264,7.584c1.391,0.639,2,2.286,1.36,3.676
	c-0.64,1.392-2.285,2-3.677,1.361c-0.009-0.005-0.018-0.009-0.026-0.013l-19.781-9.226l-20.966,12.105l20.966,12.104l19.781-9.224
	c1.341-0.626,2.938-0.087,3.625,1.224l0.058,0.117c0.647,1.387,0.047,3.036-1.34,3.684l-16.263,7.584l8.782,5.07l14.202-6.622
	c1.342-0.626,2.938-0.087,3.626,1.224l0.058,0.116c0.647,1.388,0.046,3.036-1.34,3.685h-0.001l-10.684,4.982l8.555,4.939
	c0.184-0.359,0.547-0.611,0.978-0.611c0.613,0.002,1.109,0.498,1.108,1.109c0,0.002,0,0.002,0,0.004c0,0.221-0.082,0.416-0.195,0.59
	l6.596,3.809c1.856,1.07,2.492,3.443,1.421,5.301c-1.072,1.855-3.445,2.492-5.301,1.42c-0.001,0-0.001,0-0.001,0l-17.042-9.84
	l1.027,11.744c0.133,1.525-0.995,2.869-2.52,3.004c-1.525,0.133-2.87-0.996-3.002-2.521l-1.366-15.611l-8.783-5.07l1.563,17.877
	c0.133,1.525-0.995,2.869-2.52,3.004c-1.525,0.133-2.87-0.996-3.003-2.521l-1.902-21.742l-20.678-11.938v24.042l17.932,12.521
	l0.004,0.002c1.251,0.877,1.555,2.604,0.678,3.855c0,0,0,0.002-0.001,0.002l-0.006,0.008c-0.877,1.252-2.603,1.555-3.855,0.68
	l-14.751-10.301v10.143l12.875,8.99l0.006,0.004c1.25,0.877,1.553,2.604,0.675,3.854l0,0l-0.006,0.008
	c-0.878,1.252-2.603,1.555-3.855,0.682l-9.694-6.77v19.68c0,2.143-1.738,3.881-3.881,3.881h-0.021c-2.144,0-3.881-1.738-3.881-3.881
	v-19.68l-9.695,6.77c-1.252,0.873-2.976,0.57-3.854-0.682l-0.006-0.008c-0.878-1.25-0.576-2.975,0.674-3.854h0.001l0.006-0.004
	l12.875-8.99v-10.143l-14.751,10.301c-1.253,0.875-2.978,0.572-3.855-0.68l-0.006-0.008c-0.878-1.252-0.576-2.977,0.675-3.855
	c0.002-0.002,0.004-0.002,0.006-0.004l17.932-12.521v-24.363l-21.232,12.26l-1.903,21.742c-0.128,1.475-1.394,2.588-2.872,2.529
	l-0.13-0.01c-1.525-0.133-2.653-1.477-2.521-3.002l1.564-17.877l-8.782,5.07l-1.366,15.611c-0.129,1.475-1.394,2.588-2.873,2.529
	l-0.131-0.01c-1.524-0.133-2.652-1.477-2.52-3.002l1.028-11.744l-17.043,9.84c-1.856,1.072-4.229,0.436-5.301-1.42
	c-1.072-1.857-0.436-4.23,1.42-5.301l17.044-9.842L1048.323,341.481z" fill="#D87F4E"></path>
<g>
	<path d="M2540.123,2619.238c0-15.591-12.756-28.347-28.346-28.347H390.904c-15.59,0-28.346,12.756-28.346,28.347
		v3.296c0,15.59,12.756,28.346,28.346,28.346h2120.872c15.591,0,28.346-12.756,28.346-28.346V2619.238z" fill="#964B2A"></path>
</g>
<g>
	<g>
		<g>
			<path d="M846.589,2705.039c0-7.796-6.378-14.173-14.173-14.173H478.24c-7.795,0-14.173,6.377-14.173,14.173
				c0,7.795,6.378,14.173,14.173,14.173h354.176C840.211,2719.212,846.589,2712.834,846.589,2705.039z" fill="#964B2A"></path>
		</g>
		<g>
			<path d="M2136.774,2705.039c0-7.796-6.378-14.173-14.173-14.173h-238.225c-7.795,0-14.173,6.377-14.173,14.173
				c0,7.795,6.378,14.173,14.173,14.173h238.225C2130.396,2719.212,2136.774,2712.834,2136.774,2705.039z" fill="#964B2A"></path>
		</g>
		<g>
			<path d="M2438.617,2705.039c0-7.796-6.378-14.173-14.173-14.173H2186.22c-7.795,0-14.173,6.377-14.173,14.173
				c0,7.795,6.378,14.173,14.173,14.173h238.224C2432.239,2719.212,2438.617,2712.834,2438.617,2705.039z" fill="#964B2A"></path>
		</g>
		<g>
			<path d="M1829.746,2705.039c0-7.796-6.378-14.173-14.173-14.173H893.279c-7.795,0-14.173,6.377-14.173,14.173
				c0,7.795,6.378,14.173,14.173,14.173h922.293C1823.367,2719.212,1829.746,2712.834,1829.746,2705.039z" fill="#964B2A"></path>
		</g>
	</g>
</g>
<g>
	<g>
		<path d="M1703.865,1126.904h-2.562v52.525h2.562c44.291,0,80.345,36.056,80.345,80.346v112.19h-83.822v52.525
			h83.822v214.681h-83.822v52.525h83.822v214.864h-83.822v52.526h83.822v335.472h52.526V1259.775
			C1836.736,1186.385,1777.072,1126.904,1703.865,1126.904z" fill="#77361F"></path>
		<path d="M1286.584,949.955v-98.098c0-19.217-15.74-35.14-35.14-35.14h-229.139c-19.217,0-35.14,15.739-35.14,35.14
			v98.098H1286.584z" fill="#77361F"></path>
		<path d="M987.166,892.671h299.418v57.284H987.166V892.671z" fill="#77361F"></path>
		<path d="M911.396,972.62h792.468v1321.757H911.396V972.62z" fill="#77361F"></path>
		<path d="M911.396,972.62h792.468v56.493H911.396V972.62z" fill="#77361F"></path>
		<path d="M1758.038,937.434c0-7.888-10.981-14.286-24.524-14.286H881.75c-13.542,0-24.523,6.398-24.523,14.286
			v55.124c0,7.888,10.981,14.287,24.523,14.287h851.763c13.543,0,24.524-6.399,24.524-14.287V937.434z" fill="#77361F"></path>
		<path d="M1198.918,2076.402v-172.587c0-9.699-7.87-17.569-17.57-17.569h-112.19
			c-9.699,0-17.569,7.87-17.569,17.569v172.587H1198.918z" fill="#77361F"></path>
		<path d="M1181.348,1886.246h-112.19c-9.699,0-17.569,7.87-17.569,17.569v27.819c0-9.7,7.87-17.57,17.569-17.57
			h112.19c9.7,0,17.57,7.87,17.57,17.57v-27.819C1198.918,1894.116,1191.048,1886.246,1181.348,1886.246z" fill="#77361F"></path>
		<path d="M1416.344,2076.402v-172.587c0-9.699,7.869-17.569,17.569-17.569h112.19c9.7,0,17.57,7.87,17.57,17.569
			v172.587H1416.344z" fill="#77361F"></path>
		<path d="M1433.913,1886.246h112.19c9.7,0,17.57,7.87,17.57,17.569v27.819c0-9.7-7.87-17.57-17.57-17.57h-112.19
			c-9.7,0-17.569,7.87-17.569,17.57v-27.819C1416.344,1894.116,1424.213,1886.246,1433.913,1886.246z" fill="#77361F"></path>
		<path d="M1198.918,1688.952v-172.585c0-9.701-7.87-17.569-17.57-17.569h-112.19
			c-9.699,0-17.569,7.868-17.569,17.569v172.585H1198.918z" fill="#77361F"></path>
		<path d="M1181.348,1498.798h-112.19c-9.699,0-17.569,7.868-17.569,17.569v27.817
			c0-9.699,7.87-17.568,17.569-17.568h112.19c9.7,0,17.57,7.869,17.57,17.568v-27.817
			C1198.918,1506.666,1191.048,1498.798,1181.348,1498.798z" fill="#77361F"></path>
		<path d="M1230.763,1703.203c0,2.568-7.869,4.652-17.569,4.652h-175.881c-9.7,0-17.569-2.084-17.569-4.652v-9.599
			c0-2.568,7.869-4.652,17.569-4.652h176.063c9.7,0,17.57,2.084,17.57,4.652L1230.763,1703.203z" fill="#77361F"></path>
		<path d="M1590.591,1703.203c0,2.568-7.87,4.652-17.57,4.652h-175.88c-9.7,0-17.57-2.084-17.57-4.652v-9.599
			c0-2.568,7.87-4.652,17.57-4.652h176.063c9.7,0,17.57,2.084,17.57,4.652L1590.591,1703.203z" fill="#77361F"></path>
		<path d="M1230.763,2085.521c0,2.568-7.869,4.652-17.569,4.652h-175.881c-9.7,0-17.569-2.084-17.569-4.652v-9.599
			c0-2.569,7.869-4.652,17.569-4.652h176.063c9.7,0,17.57,2.083,17.57,4.652L1230.763,2085.521z" fill="#77361F"></path>
		<path d="M1590.591,2085.521c0,2.568-7.87,4.652-17.57,4.652h-175.88c-9.7,0-17.57-2.084-17.57-4.652v-9.599
			c0-2.569,7.87-4.652,17.57-4.652h176.063c9.7,0,17.57,2.083,17.57,4.652L1590.591,2085.521z" fill="#77361F"></path>
		<path d="M1416.344,1688.952v-172.585c0-9.701,7.869-17.569,17.569-17.569h112.19c9.7,0,17.57,7.868,17.57,17.569
			v172.585H1416.344z" fill="#77361F"></path>
		<path d="M1433.913,1498.798h112.19c9.7,0,17.57,7.868,17.57,17.569v27.817c0-9.699-7.87-17.568-17.57-17.568
			h-112.19c-9.7,0-17.569,7.869-17.569,17.568v-27.817C1416.344,1506.666,1424.213,1498.798,1433.913,1498.798z" fill="#77361F"></path>
		<path d="M1198.918,1301.503v-172.585c0-9.7-7.87-17.57-17.57-17.57h-112.19c-9.699,0-17.569,7.87-17.569,17.57
			v172.585H1198.918z" fill="#77361F"></path>
		<path d="M1181.348,1111.348h-112.19c-9.699,0-17.569,7.87-17.569,17.57v27.817c0-9.699,7.87-17.568,17.569-17.568
			h112.19c9.7,0,17.57,7.869,17.57,17.568v-27.817C1198.918,1119.218,1191.048,1111.348,1181.348,1111.348z" fill="#77361F"></path>
		<path d="M1416.344,1301.503v-172.585c0-9.7,7.869-17.57,17.569-17.57h112.19c9.7,0,17.57,7.87,17.57,17.57v172.585
			H1416.344z" fill="#77361F"></path>
		<path d="M1433.913,1111.348h112.19c9.7,0,17.57,7.87,17.57,17.57v27.817c0-9.699-7.87-17.568-17.57-17.568h-112.19
			c-9.7,0-17.569,7.869-17.569,17.568v-27.817C1416.344,1119.218,1424.213,1111.348,1433.913,1111.348z" fill="#77361F"></path>
		<path d="M767.549,2259.603H1900.06v78.881H767.549V2259.603z" fill="#77361F"></path>
		<path d="M1230.763,1310.888c0,2.57-7.869,4.652-17.569,4.652h-175.881c-9.7,0-17.569-2.082-17.569-4.652v-9.597
			c0-2.569,7.869-4.652,17.569-4.652h176.063c9.7,0,17.57,2.083,17.57,4.652L1230.763,1310.888z" fill="#77361F"></path>
		<path d="M1590.591,1310.888c0,2.57-7.87,4.652-17.57,4.652h-175.88c-9.7,0-17.57-2.082-17.57-4.652v-9.597
			c0-2.569,7.87-4.652,17.57-4.652h176.063c9.7,0,17.57,2.083,17.57,4.652L1590.591,1310.888z" fill="#77361F"></path>
	</g>
</g>
<path d="M1821.402,1018.536h-2.562v52.527h2.562c44.291,0,80.345,36.054,80.345,80.344v112.19h-83.822v52.526h83.822
	v214.68h-83.822v52.527h83.822v214.863h-83.822v52.526h83.822v335.472h52.526V1151.407
	C1954.273,1078.018,1894.609,1018.536,1821.402,1018.536z" fill="#54A8C6"></path>
<path d="M1404.121,841.588v-84.845c0-16.619-15.739-30.392-35.139-30.392h-229.139
	c-19.217,0-35.14,13.612-35.14,30.392v84.845H1404.121z" fill="#FF5959"></path>
<path d="M1104.704,784.303h299.417v57.285h-299.417V784.303z" fill="#FF5959"></path>
<path d="M1028.934,864.252h792.468v1321.757h-792.468V864.252z" fill="#FF5959"></path>
<path d="M1028.934,864.252h792.468v56.495h-792.468V864.252z" fill="#FF5959"></path>
<path d="M1875.576,829.065c0-7.888-10.981-14.286-24.524-14.286H999.285c-13.543,0-24.524,6.398-24.524,14.286
	v55.125c0,7.889,10.98,14.286,24.524,14.286h851.766c13.543,0,24.524-6.397,24.524-14.286V829.065z" fill="#54A8C6"></path>
<path d="M885.082,2151.235h1132.516v78.882H885.082V2151.235z" fill="#54A8C6"></path>
<g>
	<path d="M1314.456,1941.28c0,15.591-12.756,28.347-28.347,28.347h-90.214c-15.59,0-28.347-12.756-28.347-28.347
		v-135.055c0-15.591,12.756-28.347,28.347-28.347h90.214c15.59,0,28.347,12.756,28.347,28.347V1941.28z" fill="#9FD5F4"></path>
</g>
<g>
	<path d="M1678.456,1941.28c0,15.591-12.756,28.347-28.347,28.347h-90.214c-15.59,0-28.347-12.756-28.347-28.347
		v-135.055c0-15.591,12.756-28.347,28.347-28.347h90.214c15.59,0,28.347,12.756,28.347,28.347V1941.28z" fill="#9FD5F4"></path>
</g>
<g>
	<path d="M1314.456,1569.28c0,15.591-12.756,28.347-28.347,28.347h-90.214c-15.59,0-28.347-12.756-28.347-28.347
		v-135.055c0-15.591,12.756-28.347,28.347-28.347h90.214c15.59,0,28.347,12.756,28.347,28.347V1569.28z" fill="#9FD5F4"></path>
</g>
<g>
	<path d="M1678.456,1569.28c0,15.591-12.756,28.347-28.347,28.347h-90.214c-15.59,0-28.347-12.756-28.347-28.347
		v-135.055c0-15.591,12.756-28.347,28.347-28.347h90.214c15.59,0,28.347,12.756,28.347,28.347V1569.28z" fill="#9FD5F4"></path>
</g>
<g>
	<path d="M1314.456,1211.28c0,15.591-12.756,28.347-28.347,28.347h-90.214c-15.59,0-28.347-12.756-28.347-28.347
		v-135.055c0-15.591,12.756-28.347,28.347-28.347h90.214c15.59,0,28.347,12.756,28.347,28.347V1211.28z" fill="#9FD5F4"></path>
</g>
<g>
	<path d="M1678.456,1211.28c0,15.591-12.756,28.347-28.347,28.347h-90.214c-15.59,0-28.347-12.756-28.347-28.347
		v-135.055c0-15.591,12.756-28.347,28.347-28.347h90.214c15.59,0,28.347,12.756,28.347,28.347V1211.28z" fill="#9FD5F4"></path>
</g>
</svg>
